<svg xmlns="http://www.w3.org/2000/svg" viewBox="0 0 24 24">
  <rect width="24" height="24" rx="4" fill="#060b08" />
  <path
    d="M9.5 2A2.5 2.5 0 0 1 12 4.5v15a2.5 2.5 0 0 1-4.96-.44 2.5 2.5 0 0 1 0-3.12 3 3 0 0 1 0-4.88 2.5 2.5 0 0 1 0-3.12A2.5 2.5 0 0 1 9.5 2z"
    fill="none"
    stroke="#10b981"
    stroke-width="1.8"
    stroke-linecap="round"
    stroke-linejoin="round"
  />
  <path
    d="M14.5 2A2.5 2.5 0 0 0 12 4.5v15a2.5 2.5 0 0 0 4.96-.44 2.5 2.5 0 0 0 0-3.12 3 3 0 0 0 0-4.88 2.5 2.5 0 0 0 0-3.12A2.5 2.5 0 0 0 14.5 2z"
    fill="none"
    stroke="#10b981"
    stroke-width="1.8"
    stroke-linecap="round"
    stroke-linejoin="round"
  />
</svg>
